<!DOCTYPE svg PUBLIC "-//W3C//DTD SVG 1.1//EN" "http://www.w3.org/Graphics/SVG/1.1/DTD/svg11.dtd">
<!-- Uploaded to: SVG Repo, www.svgrepo.com, Transformed by: SVG Repo Mixer Tools -->
<svg fill="#ffffff" width="800px" height="800px" viewBox="0 0 24 24" id="hotel-2" data-name="Flat Color" xmlns="http://www.w3.org/2000/svg" class="icon flat-color">
<g id="SVGRepo_bgCarrier" stroke-width="0"/>
<g id="SVGRepo_tracerCarrier" stroke-linecap="round" stroke-linejoin="round"/>
<g id="SVGRepo_iconCarrier">
<path id="secondary" d="M19,8H16a1,1,0,0,0-1,1V21a1,1,0,0,0,1,1h4a1,1,0,0,0,1-1V10A2,2,0,0,0,19,8Z" style="fill: #aa8453;"/>
<path id="primary" d="M21,20H17V3a1,1,0,0,0-.42-.81,1,1,0,0,0-.9-.14L4.37,5.82A2,2,0,0,0,3,7.72V20a1,1,0,0,0,0,2H21a1,1,0,0,0,0-2Z" style="fill: #ffffff;"/>
<path id="secondary-2" data-name="secondary" d="M12,14H8a1,1,0,0,0-1,1v5h6V15A1,1,0,0,0,12,14Z" style="fill: #aa8453;"/>
</g>
</svg>